<?xml version="1.0" standalone="no"?>
<!DOCTYPE svg PUBLIC "-//W3C//DTD SVG 20010904//EN"
 "http://www.w3.org/TR/2001/REC-SVG-20010904/DTD/svg10.dtd">
<svg version="1.0" xmlns="http://www.w3.org/2000/svg"
 width="614.000000pt" height="614.000000pt" viewBox="0 0 614.000000 614.000000"
 preserveAspectRatio="xMidYMid meet">
<metadata>
Created by potrace 1.11, written by Peter Selinger 2001-2013
</metadata>
<g transform="translate(0.000000,614.000000) scale(0.100000,-0.100000)"
fill="#000000" stroke="none">
<path d="M2889 6056 c-2 -2 -44 -6 -94 -10 -49 -3 -99 -7 -110 -10 -11 -2 -42
-7 -68 -10 -27 -4 -57 -9 -67 -11 -9 -2 -35 -6 -56 -9 -110 -18 -404 -103
-519 -151 -16 -7 -55 -23 -85 -35 -216 -88 -493 -255 -700 -421 -124 -100
-299 -269 -405 -394 -65 -76 -209 -271 -252 -341 -139 -226 -236 -433 -311
-664 -35 -108 -45 -141 -58 -195 -21 -89 -36 -157 -40 -184 -3 -18 -8 -43 -10
-55 -2 -11 -7 -41 -10 -66 -3 -25 -8 -54 -10 -64 -17 -93 -24 -486 -10 -631
45 -479 195 -927 441 -1320 197 -314 395 -533 729 -802 50 -41 241 -166 326
-215 132 -75 380 -193 380 -181 0 3 6 1 13 -5 26 -21 376 -128 482 -147 17 -2
55 -9 85 -15 30 -5 78 -12 105 -16 28 -3 52 -7 55 -9 26 -16 445 -24 610 -11
89 6 110 9 185 21 17 3 50 7 75 11 25 3 53 8 62 10 10 3 30 8 45 10 131 23
372 98 528 164 55 23 112 47 126 53 l26 10 -112 196 c-62 108 -123 216 -137
241 -14 25 -101 178 -193 340 -217 382 -204 358 -233 410 -14 25 -68 119 -120
210 -52 91 -109 190 -126 221 -143 257 -225 395 -245 415 -31 31 -82 45 -123
34 -48 -14 -285 -159 -313 -192 -34 -40 -41 -89 -21 -141 29 -77 16 -146 -40
-203 -16 -16 -99 -71 -185 -122 -175 -104 -220 -116 -295 -83 -36 17 -104 76
-104 91 0 4 -50 96 -111 206 -61 109 -127 228 -147 264 -19 36 -46 82 -59 102
-13 21 -23 39 -23 42 0 3 -87 161 -197 356 -11 19 -39 71 -63 115 -23 44 -46
85 -50 90 -4 6 -24 42 -45 80 -61 112 -55 202 18 275 27 27 262 170 327 199
43 19 107 20 152 3 14 -6 39 -27 55 -47 49 -63 108 -80 176 -51 18 7 91 48
162 91 72 43 139 83 150 89 11 6 31 19 45 27 22 14 294 176 342 204 219 125
482 288 510 315 45 45 55 80 38 139 -30 103 -19 159 42 219 40 40 303 197 352
210 76 21 167 -13 209 -77 21 -32 61 -101 163 -286 15 -27 59 -106 97 -175 83
-149 125 -225 144 -262 8 -15 19 -30 24 -33 5 -4 7 -10 4 -15 -3 -4 2 -13 10
-20 8 -7 15 -16 15 -20 0 -5 22 -46 48 -92 27 -46 65 -114 86 -153 21 -38 66
-119 100 -180 58 -104 61 -114 61 -177 0 -101 -25 -130 -210 -241 -159 -95
-211 -117 -266 -112 -56 6 -85 21 -119 64 -37 45 -85 66 -136 58 -32 -5 -148
-69 -271 -150 -66 -44 -83 -71 -83 -137 0 -36 26 -83 155 -285 17 -27 71 -113
120 -190 89 -141 134 -212 236 -372 31 -49 172 -272 313 -498 142 -225 266
-422 277 -437 10 -15 19 -30 19 -33 0 -3 5 -11 11 -18 6 -7 30 -43 53 -82 24
-38 49 -71 57 -73 17 -3 164 122 284 243 358 360 616 797 754 1276 31 108 56
209 66 269 3 19 10 58 15 85 39 213 47 655 15 863 -3 17 -7 47 -10 65 -3 17
-8 50 -11 72 -9 66 -63 283 -94 386 -56 182 -177 452 -271 607 -21 35 -39 66
-39 68 0 2 -17 28 -37 57 -20 28 -55 78 -77 111 -75 109 -244 302 -362 415
-330 313 -693 532 -1114 674 -103 35 -268 81 -327 91 -16 3 -63 12 -105 20
-41 8 -106 18 -144 21 -38 4 -73 10 -78 12 -9 6 -471 14 -477 9z"/>
</g>
</svg>
